<svg width="648" height="581" viewBox="0 0 648 581" fill="none" xmlns="http://www.w3.org/2000/svg">
<rect x="0.378296" y="212.97" width="421.504" height="426.277" rx="54" transform="rotate(-30.3255 0.378296 212.97)" fill="#85141A" fill-opacity="0.04"/>
<rect x="99.3469" y="103.067" width="476.512" height="448.397" rx="47.5" transform="rotate(-9.95903 99.3469 103.067)" stroke="#85141A" stroke-opacity="0.17" stroke-width="3"/>
<rect width="33.4575" height="33.3792" rx="10" transform="matrix(0.819157 0.573569 0.573569 -0.819157 13 436.251)" fill="#85141A" fill-opacity="0.28"/>
<rect width="33.4575" height="33.3792" rx="10" transform="matrix(0.993278 -0.115755 -0.115755 -0.993278 432.273 147.749)" fill="#85141A" fill-opacity="0.22"/>
<rect width="14.4907" height="14.4568" rx="5" transform="matrix(0.957818 -0.287376 -0.287376 -0.957818 27.567 144.011)" fill="#85141A" fill-opacity="0.19"/>
<rect width="14.4907" height="14.4568" rx="5" transform="matrix(0.957818 -0.287376 -0.287376 -0.957818 157.302 64.5286)" fill="#85141A" fill-opacity="0.61"/>
<rect width="14.4907" height="14.4568" rx="5" transform="matrix(0.957818 -0.287376 -0.287376 -0.957818 507.714 408.469)" fill="#B57073"/>
<rect width="31.4169" height="31.3433" rx="10" transform="matrix(0.957818 -0.287376 -0.287376 -0.957818 178.073 97.7114)" fill="#D7B1B3" fill-opacity="0.8"/>
</svg>
