<svg width="127" height="111" viewBox="0 0 127 111" fill="none" xmlns="http://www.w3.org/2000/svg">
<rect width="58.6561" height="62.4797" rx="14" transform="matrix(0.537986 0.845398 -0.85131 0.52086 75.1658 17.631)" fill="#85141A" fill-opacity="0.1"/>
<rect x="0.0140726" y="0.699013" width="50.8816" height="53.8757" rx="13.5" transform="matrix(0.729038 0.689622 -0.700893 0.708405 49.296 20.8256)" stroke="#85141A" stroke-opacity="0.2"/>
<ellipse cx="85.3627" cy="38.4901" rx="2.19009" ry="2.14047" transform="rotate(-6.76238 85.3627 38.4901)" fill="#AC6064"/>
<ellipse cx="61.4481" cy="18.1546" rx="2.19009" ry="2.14047" transform="rotate(-6.76238 61.4481 18.1546)" fill="#AC6064"/>
<ellipse cx="30.6412" cy="35.0098" rx="2.46385" ry="2.40803" transform="rotate(-6.76238 30.6412 35.0098)" fill="#AC6064"/>
<rect x="34.0264" y="9.66931" width="3.95742" height="80.256" rx="1.97871" transform="rotate(-6.76238 34.0264 9.66931)" fill="#AC6064"/>
<rect x="43.4768" y="89.3669" width="3.86776" height="82.1166" rx="1.93388" transform="rotate(-96.7624 43.4768 89.3669)" fill="#AC6064"/>
<rect x="49.6867" y="37.0654" width="7.53193" height="48.5963" transform="rotate(-6.76238 49.6867 37.0654)" fill="white" stroke="#AC6064" stroke-width="4"/>
<rect x="72.0795" y="69.2157" width="6.76314" height="14.033" transform="rotate(-6.76238 72.0795 69.2157)" fill="white" stroke="#AC6064" stroke-width="4"/>
<rect x="87.6923" y="50.7182" width="8.30073" height="30.5633" transform="rotate(-6.76238 87.6923 50.7182)" fill="white" stroke="#AC6064" stroke-width="4"/>
<rect x="109.61" y="72.3318" width="6.76314" height="6.51927" transform="rotate(-6.76238 109.61 72.3318)" fill="white" stroke="#AC6064" stroke-width="4"/>
</svg>
