<svg width="132" height="128" viewBox="0 0 132 128" fill="none" xmlns="http://www.w3.org/2000/svg">
<rect x="16.8259" y="76.3912" width="66.2197" height="69.2325" rx="20" transform="rotate(-69.7376 16.8259 76.3912)" fill="#85141A" fill-opacity="0.1"/>
<rect x="37.8554" y="96.961" width="57.3625" height="60.0179" rx="19.5" transform="rotate(-83.7227 37.8554 96.961)" stroke="#85141A" stroke-opacity="0.2"/>
<path d="M56.8934 31.2066L31.6968 52.8037L38.6841 58.5206L56.8934 42.2169L73.1972 51.745L105.169 21.6784L107.287 23.1606V14.4794L97.3351 15.1146L99.6642 17.4437L73.1972 41.1582L56.8934 31.2066Z" fill="#85141A" fill-opacity="0.33" stroke="#85141A" stroke-width="3"/>
<path d="M32.3318 91.975V58.7323L40.7773 63.1788L56.4014 48.9925L73.7146 57.0384L106.863 27.6071V91.975H32.3318Z" fill="#AC6064" fill-opacity="0.41"/>
<rect x="31.0615" y="58.5206" width="2.11737" height="33.4544" fill="#85141A"/>
<rect x="39.531" y="62.3319" width="2.11737" height="29.6431" fill="#85141A"/>
<rect x="48.0005" y="55.9797" width="2.11737" height="35.9952" fill="#85141A"/>
<rect x="55.1997" y="48.7808" width="2.11737" height="43.1943" fill="#85141A"/>
<rect x="63.6689" y="53.439" width="2.11737" height="38.5361" fill="#85141A"/>
<rect x="72.1384" y="55.9797" width="2.11737" height="35.9952" fill="#85141A"/>
<rect x="79.3376" y="52.1685" width="2.11737" height="39.8065" fill="#85141A"/>
<rect x="87.8066" y="44.546" width="2.11737" height="47.429" fill="#85141A"/>
<rect x="96.2764" y="36.0765" width="2.11737" height="55.8985" fill="#85141A"/>
<rect x="104.746" y="28.0305" width="2.11737" height="63.9445" fill="#85141A"/>
</svg>
