<svg width="168" height="136" viewBox="0 0 168 136" fill="none" xmlns="http://www.w3.org/2000/svg">
<rect width="96.0305" height="131.432" rx="20" transform="matrix(0.0449271 0.996556 0.997571 -0.0956805 4.11182 32.7444)" fill="#232567" fill-opacity="0.18"/>
<rect x="0.224305" y="0.624638" width="90.1961" height="114.887" rx="19.5" transform="matrix(-0.480819 0.873498 0.929429 0.375777 57.5253 2.77125)" stroke="#85141A" stroke-opacity="0.2"/>
<rect x="18.9641" y="19.1678" width="84" height="96.6256" rx="6.5" fill="white" stroke="#85141A" stroke-width="3"/>
<rect x="31.4641" y="36.2255" width="57" height="2.93016" rx="1.46508" fill="#232567"/>
<rect x="31.4641" y="50.8763" width="57" height="2.93016" rx="1.46508" fill="#232567"/>
<rect x="31.4641" y="65.5271" width="51" height="2.93016" rx="1.46508" fill="#232567"/>
<rect x="31.4641" y="80.1779" width="47" height="2.93016" rx="1.46508" fill="#232567"/>
<rect x="31.4641" y="94.8288" width="37" height="2.93016" rx="1.46508" fill="#232567"/>
<path d="M83.8391 89.7835L102.974 84.329L122.089 89.7835V100.969C122.089 112.724 114.386 122.123 102.967 125.84C91.5454 122.124 83.8391 112.722 83.8391 100.963V89.7835Z" stroke="#85141A" stroke-width="4" stroke-linejoin="round"/>
<path d="M102.964 123.642C121.964 116.805 121.797 99.224 119.964 91.4102L111.964 88.9684L102.964 86.0383L94.4642 88.4801L85.9642 91.4102C83.4642 113.875 93.9641 119.735 102.964 123.642Z" fill="white"/>
<path d="M91.4641 104.122L100.386 112.439L115.257 95.8055" stroke="#232567" stroke-width="3.5" stroke-linecap="round" stroke-linejoin="round"/>
</svg>
