<svg width="186" height="168" viewBox="0 0 186 168" fill="none" xmlns="http://www.w3.org/2000/svg">
<rect width="94.7446" height="118.48" rx="20" transform="matrix(-0.0478111 1.00092 -0.995877 -0.0652128 162.418 40.5204)" fill="#232567" fill-opacity="0.18"/>
<rect x="-0.391498" y="0.579264" width="76.309" height="103.061" rx="19.5" transform="matrix(0.198102 0.983784 -0.981097 0.174745 122.718 37.9427)" stroke="#85141A" stroke-opacity="0.2"/>
<path d="M117.743 33.9149C89.022 34.5044 61.5748 45.2486 51.4414 50.547C35.6294 45.4926 34.3941 48.5589 35.7529 50.7238C36.2465 53.9076 41.3055 56.9736 43.7733 58.1086C38.3849 75.0964 50.1213 96.8595 56.6631 105.617C52.2855 118.142 56.685 117.64 59.432 115.823C63.5921 114.78 66.6912 111.872 67.7207 110.549C110.919 117.942 127.218 91.8653 133.589 94.0256C138.686 95.7539 142.899 95.0731 144.368 94.5167C147.223 91.3948 140.823 87.1369 137.265 85.3981C139.998 68.1745 130.193 47.9567 124.948 40.0007C132.981 28.6642 129.211 27.2795 126.322 28.0042L117.743 33.9149Z" fill="#5A5B8D" stroke="#85141A" stroke-width="3"/>
<path d="M135.499 40.0834C106.778 40.6729 79.3307 51.4171 69.1972 56.7154C53.3853 51.6611 52.1499 54.7273 53.5088 56.8923C54.0023 60.0761 59.0613 63.1421 61.5292 64.277C56.1408 81.2649 67.8772 103.028 74.419 111.786C70.0413 124.311 74.4409 123.808 77.1879 121.992C81.348 120.948 84.447 118.041 85.4765 116.717C128.675 124.111 144.973 98.0337 151.345 100.194C156.442 101.922 160.655 101.242 162.124 100.685C164.979 97.5632 158.579 93.3053 155.021 91.5666C157.754 74.3429 147.948 54.1251 142.704 46.1692C150.737 34.8327 146.967 33.448 144.078 34.1727L135.499 40.0834Z" fill="white" stroke="#85141A" stroke-width="3"/>
<path d="M110.276 79.2581C104.619 72.8324 91.0417 61.5898 81.9886 68.0252" stroke="#232567" stroke-width="0.5" stroke-linecap="round"/>
<path d="M147.397 91.4863C141.259 88.0199 129.014 82.9345 129.14 90.3238" stroke="#232567" stroke-width="0.5" stroke-linecap="round"/>
<path d="M105.855 77.5351C97.5097 77.7111 80.7712 80.7094 80.5779 91.2955" stroke="#232567" stroke-width="0.5" stroke-linecap="round"/>
<path d="M103.415 91.7905C95.8575 93.9238 81.0625 99.5513 83.7459 105.799C84.275 107.032 85.5422 104.241 88.1148 103.122" stroke="#232567" stroke-width="0.5" stroke-linecap="round"/>
<path d="M123.719 71.9165C125.312 62.7023 131.283 51.8806 137.413 50.4877C138.969 50.1342 138.329 53.572 135.764 56.3287" stroke="#232567" stroke-width="0.5" stroke-linecap="round"/>
<ellipse cx="112.937" cy="82.4263" rx="3.06438" ry="1.75107" transform="rotate(-11.52 112.937 82.4263)" fill="#85141A"/>
<rect x="105.069" y="67.2269" width="28.6438" height="54.9099" rx="4" transform="rotate(-8.80882 105.069 67.2269)" fill="#5A5B8D" stroke="#85141A" stroke-width="2"/>
<path d="M106.191 70.8447C105.931 69.2012 107.058 67.6602 108.703 67.41L130.64 64.0745L124.906 82.5415L113.651 118.008L106.191 70.8447Z" fill="#232567"/>
</svg>
