<svg width="143" height="129" viewBox="0 0 143 129" fill="none" xmlns="http://www.w3.org/2000/svg">
<rect width="90.6708" height="119.852" rx="20" transform="matrix(0.173316 0.986959 -0.985864 0.155231 118.158 13.5614)" fill="#232567" fill-opacity="0.18"/>
<rect x="-0.287564" y="0.637279" width="98.522" height="104.265" rx="19.5" transform="matrix(0.362109 0.935923 -0.937237 0.338635 107.286 0.690612)" stroke="#85141A" stroke-opacity="0.2"/>
<rect x="18.7478" y="20" width="102" height="51" rx="11" fill="white" stroke="#85141A" stroke-width="4"/>
<rect x="18.7478" y="34" width="102" height="50" rx="11" fill="white" stroke="#85141A" stroke-width="4"/>
<rect x="18.7478" y="48" width="102" height="50" rx="11" fill="white" stroke="#85141A" stroke-width="4"/>
<path d="M46.689 61.7539H21.426H20.7478V59.8973V57.5232C21.7128 52.7749 24.6438 50.6976 28.2136 50H109.985C116.214 50 118.748 55.8625 118.748 58.1167V61.7539H91.9589C86.3637 61.5929 82.4665 69.178 80.0904 72.3807C74.8342 79.4652 64.6612 80.2702 59.0661 72.3807C54.3187 64.008 49.5713 61.7539 46.689 61.7539Z" fill="#232567"/>
</svg>
