<svg width="148" height="136" viewBox="0 0 148 136" fill="none" xmlns="http://www.w3.org/2000/svg">
<rect x="40.8074" y="119.9" width="83.9997" height="87.8214" rx="20" transform="rotate(-112.871 40.8074 119.9)" fill="#85141A" fill-opacity="0.1"/>
<rect x="78.0872" y="120.891" width="73.0329" height="76.4012" rx="19.5" transform="rotate(-126.856 78.0872 120.891)" stroke="#85141A" stroke-opacity="0.2"/>
<rect x="9.29195" y="60.9542" width="90.1001" height="48.7801" rx="13.75" transform="rotate(-29.3935 9.29195 60.9542)" fill="#85141A" fill-opacity="0.34" stroke="#85141A" stroke-width="2.5"/>
<path d="M78.6266 28.4647L37.1381 52.98L22.7497 61.4129C23.8992 64.6298 21.9415 67.9549 20.819 69.2153L32.4329 89.3495C35.3116 88.7996 38.0525 90.6254 39.0631 91.607L101.211 55.2087L87.0152 30.232C83.1873 32.8151 79.8278 30.1301 78.6266 28.4647Z" fill="#FCFAF1" stroke="#85141A" stroke-width="1.7"/>
<circle cx="60.0583" cy="58.6832" r="9.64821" transform="rotate(-32.7942 60.0583 58.6832)" fill="#C49EA0" stroke="#85141A" stroke-width="2"/>
<circle cx="43.1567" cy="69.3538" r="2.90081" transform="rotate(-32.7942 43.1567 69.3538)" fill="#C49EA0" stroke="#85141A" stroke-width="1.5"/>
<circle cx="77.131" cy="50.5862" r="2.90081" transform="rotate(-32.7942 77.131 50.5862)" fill="#C49EA0" stroke="#85141A" stroke-width="1.5"/>
<circle cx="86.1614" cy="79.0102" r="14.6244" transform="rotate(-15.3157 86.1614 79.0102)" fill="#FCFAF1" stroke="#85141A" stroke-width="3"/>
<circle cx="109.027" cy="51.9294" r="14.6244" transform="rotate(-15.3157 109.027 51.9294)" fill="#FCFAF1" stroke="#85141A" stroke-width="3"/>
<circle cx="86.0779" cy="79.1971" r="9.69418" transform="rotate(-30.3157 86.0779 79.1971)" fill="#C49EA0" stroke="#85141A" stroke-width="2"/>
<circle cx="108.944" cy="52.116" r="9.69418" transform="rotate(-30.3157 108.944 52.116)" fill="#C49EA0" stroke="#85141A" stroke-width="2"/>
</svg>
